<?xml version="1.0" standalone="no"?>
<!DOCTYPE svg PUBLIC "-//W3C//DTD SVG 20010904//EN"
 "http://www.w3.org/TR/2001/REC-SVG-20010904/DTD/svg10.dtd">
<svg version="1.0" xmlns="http://www.w3.org/2000/svg"
 width="225.000000pt" height="225.000000pt" viewBox="0 0 225.000000 225.000000"
 preserveAspectRatio="xMidYMid meet">
<metadata>
Created by potrace 1.14, written by Peter Selinger 2001-2017
</metadata>
<g transform="translate(0.000000,225.000000) scale(0.100000,-0.100000)"
fill="#000000" stroke="none">
<path d="M975 2239 c-366 -46 -713 -302 -870 -642 -136 -294 -136 -650 0 -944
103 -224 306 -430 529 -538 373 -181 826 -140 1152 103 570 425 621 1235 108
1722 -248 236 -574 342 -919 299z m377 -228 c327 -85 582 -346 665 -678 23
-94 23 -322 0 -416 -84 -338 -346 -600 -684 -684 -94 -23 -322 -23 -416 0
-664 166 -925 945 -495 1477 126 155 332 276 535 315 105 20 292 13 395 -14z"/>
<path d="M700 1125 c0 -190 3 -345 6 -345 6 0 484 340 484 345 0 5 -478 345
-484 345 -3 0 -6 -155 -6 -345z"/>
<path d="M1270 1125 c0 -276 3 -345 13 -338 6 5 114 83 240 172 125 89 227
164 227 166 0 2 -102 77 -227 166 -126 89 -234 167 -240 172 -10 7 -13 -62
-13 -338z"/>
</g>
</svg>
