<?xml version="1.0" standalone="no"?>
<!DOCTYPE svg PUBLIC "-//W3C//DTD SVG 20010904//EN"
 "http://www.w3.org/TR/2001/REC-SVG-20010904/DTD/svg10.dtd">
<svg version="1.0" xmlns="http://www.w3.org/2000/svg"
 width="220.000000pt" height="220.000000pt" viewBox="0 0 220.000000 220.000000"
 preserveAspectRatio="xMidYMid meet">
<metadata>
Created by potrace 1.14, written by Peter Selinger 2001-2017
</metadata>
<g transform="translate(0.000000,220.000000) scale(0.100000,-0.100000)"
fill="#000000" stroke="none">
<path d="M441 2005 c-101 -23 -181 -66 -260 -140 -85 -81 -133 -161 -161 -270
-37 -143 -21 -277 47 -409 33 -63 86 -120 478 -516 242 -245 453 -456 469
-469 61 -52 146 -14 146 65 0 41 -2 43 -545 596 -423 431 -429 439 -428 585 2
224 151 382 360 383 133 0 165 -18 344 -201 153 -157 156 -159 199 -159 42 0
46 3 195 150 178 176 222 202 347 208 127 7 233 -42 309 -143 54 -71 71 -125
72 -220 1 -67 -4 -90 -26 -139 -15 -33 -45 -79 -67 -102 -44 -47 -49 -77 -25
-123 20 -39 67 -55 109 -37 70 29 165 183 187 301 24 130 -9 297 -80 398 -40
57 -125 139 -186 176 -158 99 -392 99 -550 1 -27 -18 -103 -84 -167 -148 -65
-64 -119 -114 -120 -112 -37 52 -208 223 -252 252 -111 72 -270 101 -395 73z"/>
<path d="M1605 1088 c-41 -24 -44 -38 -45 -200 l0 -158 -154 0 c-85 0 -162 -3
-171 -6 -21 -8 -45 -56 -45 -89 0 -16 12 -38 29 -56 l29 -29 156 0 156 0 0
-154 c0 -149 1 -156 24 -183 34 -39 98 -39 132 0 23 27 24 34 24 183 l0 154
156 0 156 0 29 29 c17 18 29 40 29 56 0 33 -24 81 -45 89 -9 3 -86 6 -171 6
l-154 0 0 158 c0 135 -3 160 -18 180 -21 27 -86 39 -117 20z"/>
</g>
</svg>
