<?xml version="1.0" standalone="no"?>
<!DOCTYPE svg PUBLIC "-//W3C//DTD SVG 20010904//EN"
 "http://www.w3.org/TR/2001/REC-SVG-20010904/DTD/svg10.dtd">
<svg version="1.0" xmlns="http://www.w3.org/2000/svg"
 width="256.000000pt" height="256.000000pt" viewBox="0 0 256.000000 256.000000"
 preserveAspectRatio="xMidYMid meet">
<metadata>
Created by potrace 1.14, written by Peter Selinger 2001-2017
</metadata>
<g transform="translate(0.000000,256.000000) scale(0.100000,-0.100000)"
fill="#000000" stroke="none">
<path d="M1075 2535 c-215 -39 -420 -128 -565 -243 -238 -188 -394 -428 -467
-717 -25 -101 -28 -126 -28 -295 0 -169 3 -194 28 -295 43 -172 131 -357 225
-475 188 -238 428 -394 717 -467 163 -41 427 -41 590 0 289 73 529 229 717
467 94 118 182 303 225 475 25 101 28 126 28 295 0 169 -3 194 -28 295 -127
503 -523 873 -1026 959 -112 19 -316 20 -416 1z m467 -213 c327 -87 602 -325
728 -629 63 -152 74 -210 74 -413 0 -203 -11 -261 -74 -413 -104 -251 -326
-473 -577 -577 -152 -63 -210 -74 -413 -74 -203 0 -261 11 -413 74 -251 104
-473 326 -577 577 -63 152 -74 210 -74 413 0 203 11 261 74 413 66 159 198
331 333 436 127 97 303 177 456 206 111 21 361 14 463 -13z"/>
<path d="M866 1698 c-14 -19 -16 -76 -16 -415 0 -215 4 -403 9 -416 12 -31 36
-40 66 -24 26 14 402 363 416 387 5 9 9 -54 9 -162 0 -212 12 -251 69 -230 21
8 394 354 417 387 22 31 18 90 -8 118 -13 14 -108 104 -211 201 -159 150 -192
177 -215 174 -45 -5 -52 -35 -52 -228 -1 -139 -3 -172 -13 -160 -7 9 -101 100
-210 203 -208 197 -229 211 -261 165z"/>
</g>
</svg>
