<?xml version="1.0" standalone="no"?>
<!DOCTYPE svg PUBLIC "-//W3C//DTD SVG 20010904//EN"
 "http://www.w3.org/TR/2001/REC-SVG-20010904/DTD/svg10.dtd">
<svg version="1.0" xmlns="http://www.w3.org/2000/svg"
 width="87.000000pt" height="81.000000pt" viewBox="0 0 87.000000 81.000000"
 preserveAspectRatio="xMidYMid meet">
<metadata>
Created by potrace 1.14, written by Peter Selinger 2001-2017
</metadata>
<g transform="translate(0.000000,81.000000) scale(0.100000,-0.100000)"
fill="#000000" stroke="none">
<path d="M40 714 c0 -22 7 -68 14 -104 13 -62 13 -66 -6 -87 -25 -26 -21 -34
45 -77 62 -42 204 -182 194 -193 -4 -4 -40 25 -80 65 -40 40 -75 72 -79 72
-23 0 -37 -135 -18 -184 9 -26 11 -26 110 -26 l100 0 29 32 c30 33 27 58 -5
58 -11 0 -14 33 -14 175 l0 175 -38 0 c-32 0 -40 5 -56 35 -27 49 -86 87 -146
93 l-50 5 0 -39z"/>
</g>
</svg>
