<?xml version="1.0" standalone="no"?>
<!DOCTYPE svg PUBLIC "-//W3C//DTD SVG 20010904//EN"
 "http://www.w3.org/TR/2001/REC-SVG-20010904/DTD/svg10.dtd">
<svg version="1.0" xmlns="http://www.w3.org/2000/svg"
 width="225.000000pt" height="225.000000pt" viewBox="0 0 225.000000 225.000000"
 preserveAspectRatio="xMidYMid meet">
<metadata>
Created by potrace 1.14, written by Peter Selinger 2001-2017
</metadata>
<g transform="translate(0.000000,225.000000) scale(0.100000,-0.100000)"
fill="#000000" stroke="none">
<path d="M975 2239 c-591 -74 -1031 -633 -966 -1228 67 -620 618 -1069 1230
-1002 459 49 838 366 965 805 95 328 29 702 -172 972 -251 336 -643 504 -1057
453z m377 -228 c326 -85 582 -347 665 -678 23 -94 23 -322 0 -416 -84 -337
-347 -600 -684 -684 -94 -23 -322 -23 -416 0 -472 118 -775 576 -693 1045 66
377 360 676 733 747 105 20 292 13 395 -14z"/>
<path d="M747 1305 c-126 -89 -233 -167 -239 -173 -7 -7 68 -65 229 -180 l238
-171 3 175 c1 97 1 251 0 344 l-3 169 -228 -164z"/>
<path d="M1305 1304 c-126 -91 -234 -169 -238 -173 -6 -6 461 -351 475 -351 2
0 3 155 3 345 0 190 -2 345 -5 344 -3 0 -108 -74 -235 -165z"/>
</g>
</svg>
