<?xml version="1.0" standalone="no"?>
<!DOCTYPE svg PUBLIC "-//W3C//DTD SVG 20010904//EN"
 "http://www.w3.org/TR/2001/REC-SVG-20010904/DTD/svg10.dtd">
<svg version="1.0" xmlns="http://www.w3.org/2000/svg"
 width="512.000000pt" height="512.000000pt" viewBox="0 0 512.000000 512.000000"
 preserveAspectRatio="xMidYMid meet">
<metadata>
Created by potrace 1.14, written by Peter Selinger 2001-2017
</metadata>
<g transform="translate(0.000000,512.000000) scale(0.100000,-0.100000)"
fill="#000000" stroke="none">
<path d="M3990 4207 l0 -267 -187 0 c-221 0 -330 -11 -472 -46 -290 -72 -544
-226 -812 -493 -165 -166 -259 -278 -554 -666 -276 -363 -341 -442 -465 -566
-198 -199 -385 -306 -590 -339 -36 -5 -183 -10 -327 -10 l-263 0 0 -316 0
-316 338 5 c359 4 416 11 582 67 105 35 318 145 412 212 258 187 423 367 849
928 405 532 572 700 815 816 150 72 216 85 462 91 l212 6 1 -239 0 -239 162
167 c89 91 271 278 404 415 l242 249 -405 405 -404 404 0 -268z"/>
<path d="M320 3617 l0 -315 303 -5 c267 -4 312 -7 386 -26 158 -40 316 -131
456 -263 38 -35 69 -57 74 -52 5 5 75 97 156 204 82 107 166 216 187 242 l39
47 -83 71 c-171 147 -374 267 -558 330 -193 66 -240 72 -617 77 l-343 5 0
-315z"/>
<path d="M3991 2053 l-1 -233 -204 0 c-183 0 -213 2 -300 24 -99 26 -218 79
-303 137 -55 37 -196 155 -232 193 -14 14 -28 26 -31 26 -4 0 -56 -64 -115
-142 -60 -79 -147 -190 -194 -247 l-84 -105 49 -44 c234 -209 422 -325 649
-400 172 -58 273 -73 538 -79 l227 -6 0 -266 0 -267 404 405 405 405 -222 228
c-122 126 -304 313 -404 416 l-182 187 0 -232z"/>
</g>
</svg>
