<?xml version="1.0" standalone="no"?>
<!DOCTYPE svg PUBLIC "-//W3C//DTD SVG 20010904//EN"
 "http://www.w3.org/TR/2001/REC-SVG-20010904/DTD/svg10.dtd">
<svg version="1.0" xmlns="http://www.w3.org/2000/svg"
 width="512.000000pt" height="512.000000pt" viewBox="0 0 512.000000 512.000000"
 preserveAspectRatio="xMidYMid meet">
<metadata>
Created by potrace 1.14, written by Peter Selinger 2001-2017
</metadata>
<g transform="translate(0.000000,512.000000) scale(0.100000,-0.100000)"
fill="#000000" stroke="none">
<path d="M2485 4911 c-22 -10 -50 -29 -62 -43 -12 -13 -174 -330 -359 -703
-185 -374 -338 -682 -340 -684 -2 -2 -342 -53 -756 -112 -553 -80 -764 -114
-795 -129 -89 -41 -129 -161 -81 -247 14 -27 227 -241 570 -573 389 -378 545
-535 542 -548 -2 -9 -61 -345 -130 -747 -81 -474 -124 -745 -121 -773 6 -59
46 -115 102 -142 89 -43 73 -50 824 344 l681 357 681 -357 c751 -394 735 -387
824 -344 56 27 96 83 102 142 3 28 -40 299 -121 773 -69 402 -128 738 -130
747 -3 13 153 170 542 548 343 332 556 546 570 573 48 86 8 206 -81 247 -31
15 -242 49 -795 129 -414 59 -754 110 -756 112 -2 2 -155 310 -340 684 -185
373 -347 690 -359 703 -30 33 -94 62 -137 62 -19 0 -53 -9 -75 -19z"/>
</g>
</svg>
