<?xml version="1.0" standalone="no"?>
<!DOCTYPE svg PUBLIC "-//W3C//DTD SVG 20010904//EN"
 "http://www.w3.org/TR/2001/REC-SVG-20010904/DTD/svg10.dtd">
<svg version="1.0" xmlns="http://www.w3.org/2000/svg"
 width="512.000000pt" height="512.000000pt" viewBox="0 0 512.000000 512.000000"
 preserveAspectRatio="xMidYMid meet">
<metadata>
Created by potrace 1.14, written by Peter Selinger 2001-2017
</metadata>
<g transform="translate(0.000000,512.000000) scale(0.100000,-0.100000)"
fill="#000000" stroke="none">
<path d="M2195 5104 c-737 -113 -1377 -524 -1780 -1144 -210 -323 -338 -673
-397 -1085 -19 -137 -16 -523 5 -665 78 -509 297 -978 632 -1351 27 -30 58
-70 67 -88 11 -20 34 -39 61 -51 23 -10 54 -31 67 -46 47 -50 225 -188 345
-266 318 -209 654 -337 1027 -393 139 -21 552 -20 701 1 141 20 383 81 513
129 160 59 389 176 534 273 629 421 1022 1056 1132 1827 19 137 16 513 -5 660
-58 391 -195 747 -408 1066 -62 93 -204 275 -233 298 -10 8 -32 35 -49 60 -37
56 -65 81 -87 81 -9 0 -29 14 -46 31 -53 56 -227 191 -349 271 -318 209 -654
337 -1027 393 -128 20 -575 19 -703 -1z m690 -319 c289 -45 592 -160 844 -320
103 -65 264 -185 277 -206 4 -7 -82 -100 -202 -220 -189 -189 -212 -209 -242
-209 -79 0 -141 -57 -150 -138 -5 -44 -13 -56 -129 -178 -92 -98 -131 -133
-154 -138 -39 -7 -105 -73 -115 -112 -4 -19 -54 -77 -148 -172 l-141 -142 -5
359 c-5 345 -6 361 -26 388 -48 65 -138 93 -197 61 -12 -6 -221 -141 -464
-299 l-442 -288 -295 -3 c-279 -3 -296 -4 -322 -24 -15 -11 -37 -33 -48 -48
-21 -27 -21 -38 -21 -536 0 -498 0 -509 21 -536 11 -15 33 -37 48 -48 26 -20
44 -21 334 -26 297 -5 308 -6 337 -27 l30 -22 -395 -396 c-217 -217 -398 -395
-402 -395 -13 0 -127 149 -197 255 -448 686 -479 1549 -83 2278 350 646 1003
1081 1737 1156 123 13 428 5 550 -14z m1427 -852 c139 -175 276 -417 352 -626
304 -823 78 -1773 -568 -2384 -336 -318 -748 -518 -1216 -590 -157 -24 -493
-24 -635 0 -314 54 -607 170 -875 345 -110 72 -260 187 -260 200 0 4 188 195
418 425 l419 418 277 -182 c255 -168 282 -183 329 -187 58 -4 101 18 141 71
21 28 21 39 24 550 l2 522 208 208 c114 114 210 207 214 207 4 0 23 -33 42
-74 76 -159 101 -323 72 -467 -20 -96 -69 -205 -118 -264 -56 -66 -81 -128
-73 -181 7 -51 48 -105 95 -124 40 -16 120 -8 154 16 47 34 148 176 197 279
75 159 94 248 94 445 0 149 -3 175 -28 264 -29 107 -96 257 -145 329 l-31 44
94 93 c51 51 97 90 102 87 20 -13 108 -154 154 -246 59 -120 102 -255 124
-390 26 -152 17 -378 -20 -521 -52 -201 -154 -393 -274 -518 -90 -94 -107
-144 -77 -216 38 -91 150 -127 234 -75 13 8 51 48 86 89 186 220 301 459 358
742 33 163 33 443 0 606 -30 148 -80 299 -141 425 -49 102 -175 301 -206 327
-15 12 5 35 192 222 114 114 211 208 215 208 4 0 36 -35 70 -77z m-2159 -1555
l-246 -247 -44 36 -43 36 2 360 3 360 285 197 285 197 3 -346 2 -346 -247
-247z m-653 182 l0 -290 -140 0 -140 0 0 290 0 290 140 0 140 0 0 -290z m900
-571 l0 -180 -97 67 c-54 37 -102 71 -108 76 -6 5 31 49 95 113 58 58 106 105
107 105 2 0 3 -81 3 -181z"/>
</g>
</svg>
