<?xml version="1.0" standalone="no"?>
<!DOCTYPE svg PUBLIC "-//W3C//DTD SVG 20010904//EN"
 "http://www.w3.org/TR/2001/REC-SVG-20010904/DTD/svg10.dtd">
<svg version="1.0" xmlns="http://www.w3.org/2000/svg"
 width="512.000000pt" height="512.000000pt" viewBox="0 0 512.000000 512.000000"
 preserveAspectRatio="xMidYMid meet">
<metadata>
Created by potrace 1.14, written by Peter Selinger 2001-2017
</metadata>
<g transform="translate(0.000000,512.000000) scale(0.100000,-0.100000)"
fill="#000000" stroke="none">
<path d="M2330 5099 c-502 -47 -971 -238 -1365 -556 -126 -102 -328 -309 -423
-436 -265 -352 -429 -746 -499 -1197 -24 -161 -24 -539 0 -700 70 -451 234
-845 499 -1197 95 -127 297 -334 423 -436 863 -696 2072 -756 2986 -148 981
652 1390 1865 1004 2981 -47 135 -164 378 -244 505 -139 219 -332 440 -531
607 -202 170 -496 341 -741 432 -336 124 -754 179 -1109 145z m435 -299 c781
-72 1473 -549 1815 -1254 159 -327 224 -612 224 -981 1 -377 -63 -658 -224
-990 -220 -454 -581 -815 -1035 -1035 -332 -161 -613 -225 -990 -224 -369 0
-654 65 -981 224 -838 407 -1339 1296 -1254 2225 48 519 281 1017 650 1385
470 471 1133 711 1795 650z"/>
<path d="M3505 3798 c-72 -42 -103 -120 -76 -190 5 -13 48 -63 96 -113 264
-275 396 -617 382 -990 -5 -149 -21 -241 -64 -370 -54 -167 -182 -383 -282
-477 -82 -77 -92 -163 -28 -232 34 -36 101 -61 133 -50 62 20 82 35 151 118
187 222 302 461 364 751 21 96 24 137 23 325 0 186 -3 229 -22 320 -64 295
-195 555 -390 775 -103 118 -142 147 -201 152 -35 3 -56 -2 -86 -19z"/>
<path d="M2535 3762 c-11 -2 -33 -14 -50 -26 -16 -13 -222 -147 -457 -299
l-427 -276 -298 -3 c-290 -3 -299 -4 -329 -25 -65 -46 -64 -40 -64 -573 0
-533 -1 -527 64 -573 30 -21 39 -22 329 -25 l298 -3 438 -288 c241 -159 447
-294 459 -300 36 -19 106 -13 143 12 74 49 69 -36 67 1189 -3 1090 -3 1097
-24 1124 -39 53 -96 78 -149 66z m-127 -1575 l-3 -383 -295 191 -295 192 -3
371 -2 372 297 198 298 199 3 -378 c1 -208 1 -550 0 -762z m-898 373 l0 -300
-150 0 -150 0 0 300 0 300 150 0 150 0 0 -300z"/>
<path d="M3115 3366 c-106 -48 -127 -171 -42 -258 152 -156 224 -309 234 -503
9 -165 -31 -318 -117 -450 -22 -34 -51 -72 -64 -84 -12 -12 -31 -46 -41 -75
-18 -52 -18 -56 -1 -100 37 -96 141 -129 229 -71 15 9 27 20 27 24 0 3 25 40
57 81 222 294 268 696 120 1046 -83 198 -262 405 -348 404 -13 -1 -37 -7 -54
-14z"/>
</g>
</svg>
